<svg width="139" height="92" viewBox="0 0 139 92" fill="none" xmlns="http://www.w3.org/2000/svg">
<path d="M0.0295533 58.4533C0.0295533 76.728 14.8433 91.5417 33.1177 91.5417C51.3924 91.5417 66.2062 76.728 66.2062 58.4533C66.2062 40.1785 51.3924 25.3651 33.1177 25.3651C29.362 25.3651 25.7669 26.0198 22.4014 27.1736C29.8477 -15.5327 63.1503 -43.0734 32.2789 -20.4068C-1.95294 4.72783 -0.0071089 57.442 0.0311949 58.4081C0.0311949 58.4232 0.0295533 58.4366 0.0295533 58.4533Z" fill="#F4F8FB"/>
<path d="M72.8233 58.4533C72.8233 76.728 87.637 91.5417 105.912 91.5417C124.186 91.5417 139 76.728 139 58.4533C139 40.1785 124.186 25.3651 105.911 25.3651C102.156 25.3651 98.5607 26.0198 95.1952 27.1736C102.641 -15.5327 135.944 -43.0734 105.073 -20.4068C70.8408 4.72783 72.7864 57.442 72.825 58.4081C72.825 58.4232 72.8233 58.4366 72.8233 58.4533Z" fill="#F4F8FB"/>
</svg>
